# xmcd
#
# Track frame offsets:
#	150
#	2218
#	15872
#	30089
#	46424
#	61985
#	78506
#	91382
#	103931
#	117059
#
# Disc length: 1736 seconds
#
# Revision: 0
# Processed by: cddbd v1.5.2PL0 Copyright (c) Steve Scherf et al.
# Submitted via: EasyCDDAExtractor 15.3.0.1
#
DISCID=6906c60a
DTITLE=Eini - Draamaa 2016
DYEAR=2016
DGENRE=Suomi Pop
TTITLE0=Intro
TTITLE1=Draamaa
TTITLE2=On Niin Helppoo Olla Onnellinen
TTITLE3=Nettiin
TTITLE4=Etsit Muijaa Seuraavaa
TTITLE5=Me Ei Olla En‰‰ Me
TTITLE6=Kriisit
TTITLE7=Rusketusraidat
TTITLE8=Mik‰ Kes‰?
TTITLE9=Lupaan Olla
EXTD=
EXTT0=
EXTT1=
EXTT2=
EXTT3=
EXTT4=
EXTT5=
EXTT6=
EXTT7=
EXTT8=
EXTT9=
PLAYORDER=
